<svg xmlns="http://www.w3.org/2000/svg" viewBox="0 0 4000 4000"><defs><style>.cls-1{fill:#231f20;}.cls-2{fill:#fff;stroke:#fff;stroke-miterlimit:10;stroke-width:0.25px;}.cls-3{fill:#009444;}</style></defs><title>green logo 3</title><g id="njit_green" data-name="njit green"><ellipse class="cls-1" cx="2117.61" cy="1959.91" rx="1750" ry="1650"/><path class="cls-2" d="M1250.25,1944.4V1585.19q0-22.25-17.23-31.37t-60.88-14.17q-14.94-3-14.94-19.22v-8.1a24.24,24.24,0,0,1,2.3-10.12q28.71,3,56.29,4t64.33,1q36.75,0,63.19-1t52.84-4a100,100,0,0,1,1.72,10.12,76.59,76.59,0,0,1,.58,8.1q0,17.21-13.79,19.22-37.9,5.07-51.69,14.17t-13.79,29.34v592a107.28,107.28,0,0,1-15.51,1.51c-7.29.34-12.06.51-14.36.51a48.27,48.27,0,0,1-17.23-3.54q-9.21-3.56-19.53-14.67L799.94,1653v437.13a67.33,67.33,0,0,0,1.72,16.7c1.15,4.39,4.2,8.09,9.19,11.13s12.24,5.74,21.83,8.09,22.4,4.9,38.48,7.59a19.85,19.85,0,0,1,9.77,4.55q4,3.55,4,14.68a80.53,80.53,0,0,1-2.3,17.2q-28.73-2-54-3.54T770.07,2165q-33.33,0-63.76,1.52t-55.71,3.54a18,18,0,0,1-2.3-9.11v-8.09q0-10.11,4-14.17a17.78,17.78,0,0,1,9.76-5.06q41.37-6.07,55.15-15.18T731,2090.11v-512q0-16.17-12.06-24.79t-54.57-13.66q-13.78-3-13.78-19.22v-4.56a15.57,15.57,0,0,1,1.15-5.56l1.14-8.1q16.08,1,31,1.52t29.87,1.52q25.26,1,51.12,1.52t41.93.5q33.3,0,43.65,2.53a42.94,42.94,0,0,1,18.38,9.61Z"/><path class="cls-2" d="M1577.65,1583.16q0-10.1-2.3-16.69c-1.54-4.38-4.59-8.26-9.19-11.64s-11.68-6.23-21.25-8.6-22.4-4.56-38.48-6.58q-11.51-3-11.49-17.2v-9.11a26.37,26.37,0,0,1,2.3-11.13q36.75,2,78.69,3.54t75.24,1.52q32.14,0,73.52-1.52t78.12-3.54a92.54,92.54,0,0,1,1.72,11.13c.38,4.05.58,7.09.58,9.11,0,9.45-3.85,15.18-11.49,17.2q-24.12,3-38.49,6.58t-21.82,8.6c-5,3.38-8,7.26-9.19,11.64a67.36,67.36,0,0,0-1.73,16.69V2021.3q0,70.85-10.91,120.92t-37.33,90.56q-26.45,40.47-73,76.4t-116.6,78.42a188.43,188.43,0,0,1-15.51-13.15q-6.33-6.07-6.32-12.15a16.63,16.63,0,0,1,5.75-13.15q32.14-27.33,52.84-52.62a253.45,253.45,0,0,0,33.31-52.11,221.1,221.1,0,0,0,17.81-56.67,382.79,382.79,0,0,0,5.17-65.26Z"/><path class="cls-2" d="M2127.9,2090.11a67.33,67.33,0,0,0,1.72,16.7c1.15,4.39,4.2,8.26,9.19,11.63s12.24,6.25,21.83,8.6,22.4,4.56,38.48,6.58q11.48,2,11.49,17.2c0,2-.2,5.06-.58,9.11a60.21,60.21,0,0,1-1.72,10.12q-36.78-2-78.69-3.54t-74.1-1.52q-33.33,0-74.67,1.52t-78.11,3.54a20.1,20.1,0,0,1-2.3-10.12v-9.11q0-16.17,11.49-17.2,24.12-3,38.48-6.58t21.25-8.6c4.6-3.37,7.65-7.24,9.19-11.63s2.3-9.95,2.3-16.7V1583.16q0-10.1-2.3-16.69c-1.54-4.38-4.59-8.26-9.19-11.64s-11.68-6.23-21.25-8.6-22.4-4.56-38.48-6.58q-11.51-3-11.49-17.2v-9.11a26.37,26.37,0,0,1,2.3-11.13q36.75,2,78.11,3.54t74.67,1.52q32.16,0,74.1-1.52t78.69-3.54a92.54,92.54,0,0,1,1.72,11.13c.38,4.05.58,7.09.58,9.11q0,14.17-11.49,17.2-24.12,3-38.48,6.58t-21.83,8.6c-5,3.38-8,7.26-9.19,11.64a67.41,67.41,0,0,0-1.72,16.69Z"/><path class="cls-2" d="M2714.91,1557.86v532.25a67.33,67.33,0,0,0,1.72,16.7q1.73,6.58,8.62,11.63t19.53,8.6q12.61,3.55,35.61,6.58,17.24,3,17.23,17.2c0,2-.2,5.06-.58,9.11a59.21,59.21,0,0,1-1.72,10.12q-36.78-2-78.69-3.54t-74.09-1.52q-33.35,0-74.1,1.52t-77.54,3.54a24.74,24.74,0,0,1-2.87-10.12c-.4-4-.58-7.08-.58-9.11,0-4.71,1-8.6,2.87-11.63s7.08-5.22,15.51-6.58q42.49-5.06,53.42-13.66t10.91-28.84V1557.86H2469.07q-32.18,0-54.57,5.57t-39.05,17.2a122.62,122.62,0,0,0-29.87,30.36,401.85,401.85,0,0,0-27,45q-4.6,9.11-17.23,9.1a61.13,61.13,0,0,1-16.08-2.53,101.89,101.89,0,0,1-13.79-4.55q8-24.29,13.79-43a347,347,0,0,0,9.19-36.94q4.58-23.26,6.89-41.48t5.74-26.31q4.59-9.11,18.38-9.11,12.63,0,50,3t90.17,3h353.83q51.69,0,89-3t51.12-3q12.62,0,18.38,9.11,3.43,8.1,5.17,26.31a286.38,286.38,0,0,0,7.46,41.48q3.45,18.21,8.62,36.94t14.36,43q-5.76,2-14.36,4.55a55.24,55.24,0,0,1-15.51,2.53q-12.66,0-18.38-9.1a404.88,404.88,0,0,0-27-45,123.28,123.28,0,0,0-29.86-30.36q-16.68-11.62-39.06-17.2t-53.42-5.57Z"/><path class="cls-3" d="M2099.44,2537.76q0,80.46-46.74,122.27t-135.24,41.8q-49.24,0-88.85-12.57t-75.29-43.37l40-40.24q26.4,25.14,56,38t68.16,12.88q37.1,0,61.73-9.74t38.89-26.4a95.85,95.85,0,0,0,20-38,172.64,172.64,0,0,0,5.71-44.64v-37.71h-1.43a117,117,0,0,1-52.1,41.49,171.26,171.26,0,0,1-65.66,13.2q-39.25,0-72.08-11.32T1796.13,2512a139.36,139.36,0,0,1-36.39-47.77q-12.85-27.66-12.85-60.35,0-35.84,12.85-64.75a135.28,135.28,0,0,1,36-48.72q23.17-19.8,56-30.48t72.79-10.69a173.14,173.14,0,0,1,34.26,3.46,156.5,156.5,0,0,1,33.19,10.68,120.62,120.62,0,0,1,28.9,18.23,101.6,101.6,0,0,1,21.41,25.46h1.43v-50.29h55.66Zm-292.6-133.89a94.6,94.6,0,0,0,9.28,41.8,104.6,104.6,0,0,0,25.33,33.32,121.7,121.7,0,0,0,37.47,22.31,126.68,126.68,0,0,0,45.67,8.18q28.54,0,50.67-8.8t37.47-23.58a98.62,98.62,0,0,0,23.2-33.94,106,106,0,0,0,7.85-40.55q0-23.88-8.57-43.69a100.2,100.2,0,0,0-24.26-34.26,109,109,0,0,0-37.83-22.31q-22.12-7.86-48.53-7.86t-48.17,8.49a110.71,110.71,0,0,0-37.11,23.25,105.93,105.93,0,0,0-23.91,34.58A107.31,107.31,0,0,0,1806.84,2403.87Z"/><path class="cls-3" d="M2217.19,2326.55q0-20.12-1.43-37.72t-1.42-32.06h52.81q0,12,.71,23.89t.71,24.52H2270a85.26,85.26,0,0,1,16.06-20.75,113.67,113.67,0,0,1,24.62-17.91,141.26,141.26,0,0,1,32.11-12.58,150.57,150.57,0,0,1,38.54-4.71,106.73,106.73,0,0,1,11.42.63,56.51,56.51,0,0,1,11.42,2.51L2400.6,2302a117.09,117.09,0,0,0-30-3.77q-51.39,0-74.58,29.23t-23.19,80.15V2551h-55.67Z"/><path class="cls-3" d="M2768.85,2497.53q-30,33.94-65.66,47.46t-82.78,13.52q-39.26,0-70.65-12.26t-53.17-33a142.61,142.61,0,0,1-33.54-49,155.48,155.48,0,0,1-11.78-60.35q0-33.95,12.85-62.55a144.22,144.22,0,0,1,35.68-49q22.83-20.41,54.24-31.75t68.51-11.31q35,0,64.23,10.37t50.31,30.18a133.21,133.21,0,0,1,32.47,48.4q11.42,28.61,11.42,65.06V2419H2511.22a93.22,93.22,0,0,0,10.35,36.14,105,105,0,0,0,23.19,30.17,108.2,108.2,0,0,0,33.54,20.43,114.52,114.52,0,0,0,42.11,7.55q36.39,0,61.37-11.32t45-33.31ZM2721,2377.47q-1.44-37.72-27.84-60.35t-72.79-22.63q-46.39,0-74.94,22.63t-34.25,60.35Z"/><path class="cls-3" d="M3180.63,2497.53q-30,33.94-65.65,47.46t-82.79,13.52q-39.26,0-70.65-12.26t-53.17-33a142.61,142.61,0,0,1-33.54-49,155.48,155.48,0,0,1-11.78-60.35q0-33.95,12.85-62.55a144.22,144.22,0,0,1,35.68-49q22.83-20.41,54.24-31.75t68.51-11.31q35,0,64.23,10.37t50.32,30.18a133.46,133.46,0,0,1,32.47,48.4q11.4,28.61,11.42,65.06V2419H2923a93.39,93.39,0,0,0,10.35,36.14,105,105,0,0,0,23.19,30.17,108.24,108.24,0,0,0,33.55,20.43,114.43,114.43,0,0,0,42.1,7.55q36.41,0,61.38-11.32t45-33.31Zm-47.81-120.06q-1.44-37.72-27.83-60.35t-72.8-22.63q-46.39,0-74.93,22.63T2923,2377.47Z"/><path class="cls-3" d="M3294.11,2326.55q0-20.12-1.43-37.72t-1.43-32.06h52.81q0,12,.72,23.89t.71,24.52h1.43a85.2,85.2,0,0,1,16-20.75,113.74,113.74,0,0,1,24.63-17.91,141.08,141.08,0,0,1,32.11-12.58,150.51,150.51,0,0,1,38.54-4.71q32.82,0,56.73,8.8t39.61,24.52a96.5,96.5,0,0,1,23.2,38,152.33,152.33,0,0,1,7.49,48.71V2551h-55.67V2374.32q0-37.08-18.55-58.46t-57.81-21.37q-27.14,0-46.74,8.17t-32.12,23.26a98.72,98.72,0,0,0-18.55,35.83q-6.08,20.74-6.07,45.89V2551h-55.66Z"/><path class="cls-3" d="M3119.32,2176.45s8.1-40.61,14-65.24,24.14-80,69.49-117.45,114.77-70.69,160.49-86.66c5.29-1.67,4.5-.33,4.5-.33s-14.28,66-41.43,131.45c-21.12,50.89-66.56,107.45-107.87,131C3179.41,2191.43,3135,2186,3135,2186s33.64-20.24,63.38-47.45,56.49-56.57,74.87-80.39,41-67.21,41-67.21-42.72,73.2-122.55,137.39C3170.34,2146.25,3122.75,2174.66,3119.32,2176.45Z"/><path class="cls-3" d="M3098.93,2174.21s-22.87-21-35.95-34.62-38.12-49.48-27.3-106.77,45.13-137.35,72-188.2c3.24-5.83,3.56-4.62,3.56-4.62s36.25,35.18,61.22,83.09c19.42,37.25,22.45,100.67,4.8,149.5-16.69,46.16-58.12,88.91-58.12,88.91s13.58-40.1,18.77-78.51,6.28-74.49,4.36-100.43-14.58-62.34-14.58-62.34,17.5,66-2.89,166.24C3119.89,2113.54,3100.52,2170.2,3098.93,2174.21Z"/><path class="cls-3" d="M2985.21,1886.17a263.82,263.82,0,0,1,181.7-91.93c143-10.53,267.83,94.68,282.6,236.33q21.91,19.17,41.93,40.4a309.67,309.67,0,0,0-.58-35.21c-12.38-168.19-158.75-294.5-326.94-282.13a304.9,304.9,0,0,0-236.09,142Q2956,1889.55,2985.21,1886.17Z"/></g></svg>