<svg id="Layer_1" data-name="Layer 1" xmlns="http://www.w3.org/2000/svg" viewBox="0 0 4000 4000"><defs><style>.cls-1{fill:#231f20;}.cls-2{font-size:628.62px;fill:#006838;font-family:Avenir-Roman, Avenir;letter-spacing:0.02em;}.cls-3{letter-spacing:0em;}.cls-4{fill:#009444;}</style></defs><title>green logo 2</title><path class="cls-1" d="M1151.63,1816.27V1457.06q0-22.24-17.23-31.37t-60.89-14.16q-14.94-3-14.93-19.23v-8.09a24.06,24.06,0,0,1,2.3-10.12q28.69,3,56.29,4t64.33,1q36.75,0,63.18-1t52.84-4a99.55,99.55,0,0,1,1.73,10.12,78.9,78.9,0,0,1,.57,8.09q0,17.22-13.78,19.23-37.92,5.07-51.7,14.16T1220.56,1455V2047a106.9,106.9,0,0,1-15.51,1.52c-7.29.33-12.06.5-14.36.5a48,48,0,0,1-17.23-3.54q-9.21-3.56-19.53-14.67L701.31,1524.86V1962a67.28,67.28,0,0,0,1.73,16.7q1.71,6.58,9.19,11.13t21.82,8.1q14.36,3.55,38.49,7.58a19.7,19.7,0,0,1,9.76,4.56q4,3.56,4,14.67a79.73,79.73,0,0,1-2.3,17.2q-28.72-2-54-3.54t-58.59-1.52q-33.33,0-63.75,1.52T552,2041.92a18,18,0,0,1-2.3-9.11v-8.09c0-6.74,1.33-11.46,4-14.17a17.84,17.84,0,0,1,9.76-5.06q41.35-6.06,55.14-15.17T632.39,1962V1450q0-16.18-12.07-24.79t-54.56-13.66q-13.78-3-13.79-19.23v-4.55a15.84,15.84,0,0,1,1.15-5.57l1.15-8.09q16.08,1,31,1.51t29.86,1.52q25.26,1,51.12,1.52t41.93.51q33.31,0,43.66,2.53a43.05,43.05,0,0,1,18.38,9.61Z"/><path class="cls-1" d="M1479,1455q0-10.11-2.29-16.7c-1.55-4.38-4.6-8.25-9.19-11.64s-11.69-6.23-21.26-8.6-22.4-4.55-38.48-6.57c-7.66-2-11.49-7.75-11.49-17.21v-9.1a26.49,26.49,0,0,1,2.3-11.13q36.75,2,78.69,3.54t75.25,1.52q32.15,0,73.52-1.52t78.11-3.54a92.14,92.14,0,0,1,1.73,11.13c.37,4,.57,7.08.57,9.1,0,9.46-3.84,15.18-11.49,17.21q-24.12,3-38.48,6.57t-21.83,8.6c-5,3.39-8,7.26-9.19,11.64a67.5,67.5,0,0,0-1.72,16.7v438.14q0,70.83-10.91,120.92t-37.34,90.56q-26.44,40.46-73,76.39T1386,2259.47a185.92,185.92,0,0,1-15.5-13.15q-6.33-6.08-6.32-12.14a16.66,16.66,0,0,1,5.74-13.16q32.14-27.32,52.84-52.61a253.57,253.57,0,0,0,33.32-52.12,220.62,220.62,0,0,0,17.8-56.66,383,383,0,0,0,5.17-65.27Z"/><path class="cls-1" d="M2029.27,1962a67.28,67.28,0,0,0,1.73,16.7q1.71,6.58,9.19,11.64t21.82,8.6q14.35,3.55,38.49,6.57,11.46,2,11.48,17.21c0,2-.19,5.06-.57,9.1a61.06,61.06,0,0,1-1.72,10.12q-36.78-2-78.69-3.54t-74.1-1.52q-33.33,0-74.67,1.52t-78.12,3.54a20.18,20.18,0,0,1-2.29-10.12v-9.1q0-16.18,11.48-17.21,24.14-3,38.49-6.57t21.25-8.6q6.89-5.05,9.19-11.64t2.3-16.7V1455q0-10.11-2.3-16.7T1873,1426.7q-6.9-5-21.25-8.6t-38.49-6.57c-7.66-2-11.48-7.75-11.48-17.21v-9.1a26.48,26.48,0,0,1,2.29-11.13q36.75,2,78.12,3.54t74.67,1.52q32.14,0,74.1-1.52t78.69-3.54a94.25,94.25,0,0,1,1.72,11.13c.38,4,.57,7.08.57,9.1,0,9.46-3.84,15.18-11.48,17.21q-24.14,3-38.49,6.57t-21.82,8.6q-7.49,5.08-9.19,11.64a67.45,67.45,0,0,0-1.73,16.7Z"/><path class="cls-1" d="M2616.28,1429.74V1962a67.28,67.28,0,0,0,1.73,16.7q1.71,6.58,8.61,11.64c4.6,3.38,11.09,6.24,19.53,8.6s20.28,4.55,35.61,6.57q17.23,3,17.23,17.21c0,2-.19,5.06-.57,9.1a60,60,0,0,1-1.72,10.12q-36.78-2-78.69-3.54t-74.1-1.52q-33.33,0-74.1,1.52t-77.54,3.54a25,25,0,0,1-2.87-10.12c-.39-4-.57-7.08-.57-9.1q0-7.08,2.87-11.64c1.9-3,7.07-5.22,15.51-6.58q42.48-5.06,53.41-13.66t10.92-28.84V1429.74H2370.45q-32.17,0-54.57,5.56t-39.06,17.21a122.92,122.92,0,0,0-29.87,30.35,404.33,404.33,0,0,0-27,45q-4.61,9.1-17.23,9.11a61.56,61.56,0,0,1-16.09-2.53,102.84,102.84,0,0,1-13.78-4.56q8-24.29,13.78-43a341.44,341.44,0,0,0,9.19-36.93q4.58-23.26,6.9-41.49t5.74-26.31q4.58-9.11,18.38-9.11,12.63,0,50,3t90.18,3h353.82q51.69,0,89-3t51.12-3q12.63,0,18.38,9.11,3.45,8.11,5.17,26.31A288,288,0,0,0,2892,1450q3.45,18.21,8.61,36.93t14.36,43c-3.84,1.36-8.61,2.88-14.36,4.56a55.48,55.48,0,0,1-15.5,2.53q-12.66,0-18.39-9.11a407.4,407.4,0,0,0-27-45,123.44,123.44,0,0,0-29.87-30.35q-16.67-11.62-39.06-17.21t-53.42-5.56Z"/><text class="cls-2" transform="translate(1614.73 2453.84) scale(1.14 1)">g<tspan class="cls-3" x="397.28" y="0">r</tspan><tspan x="620.44" y="0">een</tspan></text><path class="cls-4" d="M3063,1989.17s11.68-39.72,19.7-63.73,31.17-77.49,79.66-110.81,120.61-60.21,167.56-72.05c5.42-1.19,4.52.08,4.52.08s-20.09,64.47-53,127.25c-25.55,48.8-75.85,101.09-119.09,120.85-40.87,18.68-84.6,9.32-84.6,9.32s35.3-17.17,67.35-41.62,61.29-51.32,81.72-73.42,46.81-63.3,46.81-63.3-49.06,69.11-134.28,126C3116.49,1963.63,3066.56,1987.7,3063,1989.17Z"/><path class="cls-4" d="M3042.87,1985.13s-20.92-22.91-32.73-37.67-33.57-52.68-17.69-108.78,57.16-132.79,88.48-181c3.75-5.52,4-4.29,4-4.29s33,38.27,53.59,88.21c16,38.83,13.41,102.26-8.51,149.33-20.73,44.49-65.8,83.4-65.8,83.4s17.09-38.74,25.68-76.53,12.88-73.64,13.27-99.66-9-63.38-9-63.38S3105.7,1802,3076.47,1900C3069.15,1926.56,3044.81,1981.28,3042.87,1985.13Z"/><path class="cls-4" d="M3329.9,1942a263.79,263.79,0,0,1-188,78.36c-143.41,0-260.16-114.08-264.5-256.44q-20.45-20.72-38.85-43.36a309.27,309.27,0,0,0-2,35.16c0,168.64,136.71,305.35,305.35,305.35a304.91,304.91,0,0,0,245.88-124.26Q3359.26,1940.78,3329.9,1942Z"/></svg>