<svg id="Layer_1" data-name="Layer 1" xmlns="http://www.w3.org/2000/svg" viewBox="0 0 4000 4000"><defs><style>.cls-1{fill:#fff;}.cls-2{fill:#231f20;}.cls-3{font-size:628.62px;fill:#006838;font-family:Avenir-Roman, Avenir;letter-spacing:0.02em;}.cls-4{letter-spacing:0em;}.cls-5{fill:#009444;}</style></defs><title>green logo 1</title><ellipse class="cls-1" cx="2046.73" cy="1996" rx="1750" ry="1650"/><path class="cls-2" d="M1157.25,1967.1V1607.88q0-22.25-17.23-31.37t-60.88-14.16q-14.94-3-14.94-19.23V1535a24.21,24.21,0,0,1,2.3-10.12q28.71,3,56.29,4t64.33,1q36.75,0,63.19-1t52.84-4a99.5,99.5,0,0,1,1.72,10.12,76.6,76.6,0,0,1,.58,8.09q0,17.22-13.79,19.23-37.9,5.07-51.69,14.16t-13.79,29.35V2197.8a106.9,106.9,0,0,1-15.51,1.52c-7.29.33-12.06.51-14.36.51a48.08,48.08,0,0,1-17.23-3.55q-9.21-3.56-19.53-14.67L706.94,1675.68v437.13a67.25,67.25,0,0,0,1.72,16.69c1.15,4.4,4.2,8.1,9.19,11.13s12.24,5.74,21.83,8.1,22.4,4.9,38.48,7.59a19.77,19.77,0,0,1,9.77,4.55q4,3.55,4,14.67a80.37,80.37,0,0,1-2.3,17.2q-28.73-2-54-3.54t-58.59-1.52q-33.33,0-63.76,1.52t-55.71,3.54a17.9,17.9,0,0,1-2.3-9.1v-8.1q0-10.1,4-14.16a17.78,17.78,0,0,1,9.76-5.06q41.37-6.08,55.15-15.18T638,2112.81v-512q0-16.17-12.06-24.79t-54.57-13.66q-13.78-3-13.78-19.23v-4.55a15.62,15.62,0,0,1,1.15-5.57l1.14-8.09q16.08,1,31,1.52t29.87,1.51q25.26,1,51.12,1.52t41.93.51q33.3,0,43.65,2.53a42.94,42.94,0,0,1,18.38,9.61Z"/><path class="cls-2" d="M1484.65,1605.86q0-10.11-2.3-16.7c-1.54-4.38-4.59-8.25-9.19-11.63s-11.68-6.23-21.25-8.61-22.4-4.55-38.48-6.57q-11.51-3-11.49-17.2V1536a26.34,26.34,0,0,1,2.3-11.13q36.75,2,78.69,3.54t75.24,1.52q32.14,0,73.52-1.52t78.12-3.54a92.23,92.23,0,0,1,1.72,11.13c.38,4,.58,7.08.58,9.11,0,9.45-3.85,15.17-11.49,17.2q-24.12,3-38.49,6.57t-21.82,8.61c-5,3.38-8,7.25-9.19,11.63a67.45,67.45,0,0,0-1.73,16.7V2044q0,70.83-10.91,120.92t-37.33,90.56q-26.45,40.45-73,76.4t-116.6,78.42a186.43,186.43,0,0,1-15.51-13.16q-6.33-6.07-6.32-12.14a16.63,16.63,0,0,1,5.75-13.16q32.14-27.32,52.84-52.61a253.72,253.72,0,0,0,33.31-52.11,221.22,221.22,0,0,0,17.81-56.67,382.79,382.79,0,0,0,5.17-65.26Z"/><path class="cls-2" d="M2034.9,2112.81a67.25,67.25,0,0,0,1.72,16.69c1.15,4.4,4.2,8.27,9.19,11.64s12.24,6.24,21.83,8.6,22.4,4.55,38.48,6.58q11.48,2,11.49,17.2c0,2-.2,5.06-.58,9.1a60,60,0,0,1-1.72,10.12q-36.78-2-78.69-3.54t-74.1-1.52q-33.33,0-74.67,1.52t-78.11,3.54a20.07,20.07,0,0,1-2.3-10.12v-9.1q0-16.17,11.49-17.2,24.12-3,38.48-6.58t21.25-8.6c4.6-3.37,7.65-7.24,9.19-11.64s2.3-9.94,2.3-16.69V1605.86q0-10.11-2.3-16.7c-1.54-4.38-4.59-8.25-9.19-11.63s-11.68-6.23-21.25-8.61-22.4-4.55-38.48-6.57q-11.51-3-11.49-17.2V1536a26.34,26.34,0,0,1,2.3-11.13q36.75,2,78.11,3.54t74.67,1.52q32.16,0,74.1-1.52t78.69-3.54A92.23,92.23,0,0,1,2117,1536c.38,4,.58,7.08.58,9.11q0,14.17-11.49,17.2-24.12,3-38.48,6.57t-21.83,8.61c-5,3.38-8,7.25-9.19,11.63a67.5,67.5,0,0,0-1.72,16.7Z"/><path class="cls-2" d="M2621.91,1580.56v532.25a67.25,67.25,0,0,0,1.72,16.69q1.73,6.6,8.62,11.64t19.53,8.6q12.61,3.56,35.61,6.58,17.24,3,17.23,17.2c0,2-.2,5.06-.58,9.1a59,59,0,0,1-1.72,10.12q-36.78-2-78.69-3.54t-74.09-1.52q-33.35,0-74.1,1.52t-77.54,3.54a24.7,24.7,0,0,1-2.87-10.12c-.4-4-.58-7.08-.58-9.1,0-4.71,1-8.6,2.87-11.64s7.08-5.22,15.51-6.58q42.49-5,53.42-13.66t10.91-28.83V1580.56H2376.07q-32.18,0-54.57,5.57t-39.05,17.2a122.75,122.75,0,0,0-29.87,30.35,402.76,402.76,0,0,0-27,45q-4.6,9.11-17.23,9.11a61.55,61.55,0,0,1-16.08-2.53,103.34,103.34,0,0,1-13.79-4.55q8-24.29,13.79-43a346.18,346.18,0,0,0,9.19-36.93q4.58-23.27,6.89-41.49t5.74-26.31q4.59-9.11,18.38-9.1,12.63,0,50,3t90.17,3h353.83q51.69,0,89-3t51.12-3q12.62,0,18.38,9.1,3.43,8.12,5.17,26.31a286.49,286.49,0,0,0,7.46,41.49q3.45,18.21,8.62,36.93t14.36,43q-5.76,2-14.36,4.55a55.6,55.6,0,0,1-15.51,2.53q-12.66,0-18.38-9.11a405.81,405.81,0,0,0-27-45,123.41,123.41,0,0,0-29.86-30.35q-16.68-11.62-39.06-17.2t-53.42-5.57Z"/><text class="cls-3" transform="translate(1620.35 2604.66) scale(1.14 1)">g<tspan class="cls-4" x="397.28" y="0">r</tspan><tspan x="620.44" y="0">een</tspan></text><path class="cls-5" d="M3068.6,2140s11.69-39.72,19.71-63.73,31.16-77.49,79.66-110.81,120.6-60.2,167.56-72c5.42-1.19,4.52.07,4.52.07s-20.09,64.47-53,127.25c-25.56,48.8-75.85,101.1-119.09,120.85-40.88,18.68-84.61,9.32-84.61,9.32s35.31-17.17,67.35-41.62,61.3-51.32,81.72-73.41,46.81-63.3,46.81-63.3-49.06,69.1-134.28,126C3122.11,2114.45,3072.18,2138.52,3068.6,2140Z"/><path class="cls-5" d="M3048.5,2136s-20.92-22.92-32.73-37.68-33.58-52.68-17.7-108.78,57.17-132.79,88.48-181c3.75-5.52,4-4.29,4-4.29s33,38.27,53.59,88.21c16,38.83,13.4,102.27-8.52,149.33-20.72,44.5-65.79,83.4-65.79,83.4s17.09-38.74,25.68-76.53,12.87-73.64,13.27-99.65-9-63.39-9-63.39,11.57,67.25-17.67,165.33C3074.77,2077.39,3050.44,2132.11,3048.5,2136Z"/><path class="cls-5" d="M3335.52,2092.84a263.8,263.8,0,0,1-187.95,78.35c-143.41,0-260.17-114.08-264.5-256.43q-20.46-20.73-38.85-43.36a306.67,306.67,0,0,0-2,35.15c0,168.64,136.72,305.35,305.36,305.35a304.89,304.89,0,0,0,245.87-124.26Q3364.89,2091.6,3335.52,2092.84Z"/></svg>