<svg xmlns="http://www.w3.org/2000/svg" viewBox="0 0 4000 4000"><defs><style>.cls-1{fill:#fff;stroke:#fff;stroke-miterlimit:10;stroke-width:0.25px;}.cls-2{fill:#009444;}</style></defs><title>green logo 4</title><g id="njit_green" data-name="njit green"><path class="cls-1" d="M1306.32,1749.15V1389.93q0-22.25-17.23-31.37t-60.88-14.16q-15-3-14.94-19.23v-8.09a24.21,24.21,0,0,1,2.3-10.12q28.7,3,56.29,4t64.33,1q36.75,0,63.18-1t52.85-4a102.35,102.35,0,0,1,1.72,10.12,76.13,76.13,0,0,1,.57,8.09q0,17.22-13.78,19.23-37.9,5.07-51.7,14.16t-13.78,29.35v591.94a106.9,106.9,0,0,1-15.51,1.52c-7.29.33-12.06.51-14.36.51a48,48,0,0,1-17.23-3.55q-9.21-3.55-19.53-14.67L856,1457.73v437.12a67.28,67.28,0,0,0,1.72,16.7c1.15,4.4,4.2,8.1,9.19,11.13s12.24,5.74,21.82,8.1,22.41,4.9,38.49,7.59a19.61,19.61,0,0,1,9.76,4.55q4,3.55,4,14.67a80.28,80.28,0,0,1-2.29,17.2q-28.74-2-54-3.54t-58.58-1.52q-33.33,0-63.76,1.52t-55.72,3.54a18,18,0,0,1-2.29-9.1v-8.1q0-10.1,4-14.17a17.76,17.76,0,0,1,9.76-5.05q41.36-6.07,55.14-15.18t13.79-28.34v-512q0-16.18-12.06-24.79t-54.57-13.66q-13.79-3-13.79-19.23v-4.55a15.84,15.84,0,0,1,1.15-5.57L709,1307q16.08,1,31,1.51t29.87,1.52q25.24,1,51.12,1.52t41.93.51q33.3,0,43.65,2.53a43.05,43.05,0,0,1,18.38,9.61Z"/><path class="cls-1" d="M1633.72,1387.91q0-10.11-2.3-16.7t-9.19-11.64q-6.9-5-21.25-8.6t-38.49-6.57c-7.66-2-11.48-7.75-11.48-17.21v-9.1a26.48,26.48,0,0,1,2.29-11.13q36.75,2,78.69,3.54t75.25,1.52q32.15,0,73.52-1.52t78.12-3.54a94.25,94.25,0,0,1,1.72,11.13q.57,6.08.57,9.1c0,9.46-3.84,15.18-11.48,17.21q-24.14,3-38.49,6.57t-21.82,8.6q-7.49,5.09-9.19,11.64a67.45,67.45,0,0,0-1.73,16.7v438.14q0,70.83-10.91,120.92t-37.34,90.56q-26.43,40.46-72.94,76.39t-116.6,78.42a184.59,184.59,0,0,1-15.51-13.15q-6.33-6.08-6.32-12.14a16.66,16.66,0,0,1,5.74-13.16q32.16-27.32,52.85-52.61a253.51,253.51,0,0,0,33.31-52.12,221,221,0,0,0,17.81-56.66,383.93,383.93,0,0,0,5.17-65.27Z"/><path class="cls-1" d="M2184,1894.85a67.28,67.28,0,0,0,1.72,16.7c1.15,4.4,4.2,8.27,9.19,11.64s12.24,6.24,21.82,8.6,22.41,4.55,38.49,6.58q11.47,2,11.49,17.2c0,2-.2,5.06-.58,9.1a60,60,0,0,1-1.72,10.12q-36.78-2-78.69-3.54t-74.1-1.52q-33.33,0-74.67,1.52t-78.11,3.54a20.07,20.07,0,0,1-2.3-10.12v-9.1q0-16.18,11.49-17.2,24.12-3,38.48-6.58t21.25-8.6c4.6-3.37,7.65-7.24,9.19-11.64s2.3-9.94,2.3-16.7V1387.91q0-10.11-2.3-16.7c-1.54-4.38-4.59-8.25-9.19-11.64s-11.68-6.22-21.25-8.6-22.4-4.55-38.48-6.57c-7.67-2-11.49-7.75-11.49-17.21v-9.1a26.34,26.34,0,0,1,2.3-11.13q36.75,2,78.11,3.54t74.67,1.52q32.14,0,74.1-1.52t78.69-3.54a92.23,92.23,0,0,1,1.72,11.13c.38,4.05.58,7.08.58,9.1,0,9.46-3.84,15.18-11.49,17.21q-24.12,3-38.49,6.57t-21.82,8.6c-5,3.39-8,7.26-9.19,11.64a67.5,67.5,0,0,0-1.72,16.7Z"/><path class="cls-1" d="M2771,1362.61v532.24a67.28,67.28,0,0,0,1.72,16.7q1.73,6.6,8.61,11.64t19.53,8.6q12.63,3.56,35.62,6.58,17.22,3,17.23,17.2c0,2-.2,5.06-.58,9.1a60,60,0,0,1-1.72,10.12q-36.78-2-78.69-3.54t-74.1-1.52q-33.33,0-74.09,1.52t-77.54,3.54a24.85,24.85,0,0,1-2.88-10.12c-.39-4-.57-7.08-.57-9.1,0-4.71.95-8.6,2.87-11.64s7.07-5.22,15.51-6.58q42.48-5,53.42-13.66t10.91-28.84V1362.61H2525.14q-32.17,0-54.57,5.57t-39.06,17.2a122.71,122.71,0,0,0-29.86,30.35,402.76,402.76,0,0,0-27,45q-4.61,9.1-17.23,9.11a61.49,61.49,0,0,1-16.08-2.53,103.34,103.34,0,0,1-13.79-4.55q8-24.29,13.79-43a346.18,346.18,0,0,0,9.19-36.93q4.57-23.26,6.89-41.49t5.74-26.31q4.58-9.1,18.38-9.1,12.63,0,50,3t90.18,3h353.82q51.7,0,89-3t51.12-3q12.63,0,18.38,9.1,3.45,8.12,5.17,26.31a288,288,0,0,0,7.47,41.49q3.45,18.21,8.62,36.93t14.36,43c-3.85,1.36-8.62,2.87-14.36,4.55a55.6,55.6,0,0,1-15.51,2.53q-12.66,0-18.38-9.11a405.81,405.81,0,0,0-27-45,123.27,123.27,0,0,0-29.87-30.35q-16.66-11.62-39.05-17.2t-53.42-5.57Z"/><path class="cls-2" d="M2155.51,2342.51q0,80.46-46.75,122.26t-135.23,41.81q-49.24,0-88.86-12.57t-75.29-43.38l40-40.23q26.39,25.14,56,38t68.16,12.89q37.1,0,61.73-9.75t38.89-26.4a95.83,95.83,0,0,0,20-38,172.08,172.08,0,0,0,5.71-44.63v-37.72h-1.42a117,117,0,0,1-52.1,41.49,171.26,171.26,0,0,1-65.66,13.2q-39.26,0-72.08-11.31t-56.38-31.43a139.3,139.3,0,0,1-36.39-47.78q-12.86-27.64-12.85-60.35,0-35.82,12.85-64.74a135.28,135.28,0,0,1,36-48.72q23.18-19.8,56-30.49t72.79-10.69a173.14,173.14,0,0,1,34.26,3.46,156.26,156.26,0,0,1,33.18,10.69,119.87,119.87,0,0,1,28.91,18.23,101.43,101.43,0,0,1,21.41,25.46h1.42v-50.29h55.67Zm-292.6-133.9a94.64,94.64,0,0,0,9.28,41.81,104.56,104.56,0,0,0,25.33,33.31,121.61,121.61,0,0,0,37.47,22.32,126.89,126.89,0,0,0,45.67,8.17q28.54,0,50.67-8.8t37.47-23.57A98.49,98.49,0,0,0,2092,2247.9a106,106,0,0,0,7.85-40.54q0-23.88-8.56-43.69a100.11,100.11,0,0,0-24.26-34.26,109.21,109.21,0,0,0-37.83-22.32q-22.12-7.85-48.53-7.85t-48.17,8.48a110.89,110.89,0,0,0-37.11,23.26,105.64,105.64,0,0,0-23.91,34.57A107.34,107.34,0,0,0,1862.91,2208.61Z"/><path class="cls-2" d="M2273.26,2131.29q0-20.1-1.43-37.71t-1.43-32.06h52.81q0,11.94.72,23.89t.71,24.51h1.43a85,85,0,0,1,16.06-20.74,114,114,0,0,1,24.62-17.92,141.07,141.07,0,0,1,32.11-12.57,150.56,150.56,0,0,1,38.54-4.72,106.73,106.73,0,0,1,11.42.63,56.69,56.69,0,0,1,11.42,2.52l-3.57,49.66a116.71,116.71,0,0,0-30-3.77q-51.39,0-74.58,29.23t-23.2,80.15v143.32h-55.66Z"/><path class="cls-2" d="M2824.92,2302.28q-30,33.94-65.66,47.46t-82.78,13.51q-39.26,0-70.66-12.25t-53.16-33a142.54,142.54,0,0,1-33.55-49,155.44,155.44,0,0,1-11.77-60.35q0-33.95,12.85-62.54a144.13,144.13,0,0,1,35.68-49q22.83-20.43,54.24-31.75t68.51-11.32q35,0,64.23,10.38t50.31,30.17a133.3,133.3,0,0,1,32.47,48.4q11.41,28.62,11.42,65.07v15.71H2567.29a93.25,93.25,0,0,0,10.34,36.15,105.19,105.19,0,0,0,23.2,30.17,108.58,108.58,0,0,0,33.54,20.43,114.48,114.48,0,0,0,42.11,7.54q36.39,0,61.37-11.31t45-33.32Zm-47.82-120.07q-1.44-37.71-27.83-60.34t-72.79-22.63q-46.41,0-74.94,22.63t-34.25,60.34Z"/><path class="cls-2" d="M3236.7,2302.28q-30,33.94-65.66,47.46t-82.78,13.51q-39.26,0-70.65-12.25t-53.17-33a142.52,142.52,0,0,1-33.54-49,155.45,155.45,0,0,1-11.78-60.35q0-33.95,12.85-62.54a144.13,144.13,0,0,1,35.68-49q22.83-20.43,54.24-31.75T3090.4,2054q35,0,64.23,10.38t50.31,30.17a133.45,133.45,0,0,1,32.48,48.4q11.4,28.62,11.41,65.07v15.71H2979.07a93.27,93.27,0,0,0,10.35,36.15,105,105,0,0,0,23.19,30.17,108.58,108.58,0,0,0,33.54,20.43,114.52,114.52,0,0,0,42.11,7.54q36.39,0,61.38-11.31t45-33.32Zm-47.81-120.07q-1.44-37.71-27.84-60.34t-72.79-22.63q-46.4,0-74.93,22.63t-34.26,60.34Z"/><path class="cls-2" d="M3350.17,2131.29q0-20.1-1.42-37.71t-1.43-32.06h52.81q0,11.94.71,23.89t.72,24.51H3403a85.47,85.47,0,0,1,16.06-20.74,114,114,0,0,1,24.62-17.92,141.33,141.33,0,0,1,32.12-12.57,150.45,150.45,0,0,1,38.54-4.72q32.8,0,56.73,8.81t39.61,24.51a96.36,96.36,0,0,1,23.19,38,152.11,152.11,0,0,1,7.5,48.72v181.67h-55.67V2179.07q0-37.08-18.55-58.46t-57.81-21.37q-27.14,0-46.74,8.17a81.38,81.38,0,0,0-32.12,23.26,98.64,98.64,0,0,0-18.55,35.83q-6.07,20.74-6.07,45.89v143.32h-55.67Z"/><path class="cls-2" d="M3175.39,1981.19s8.1-40.61,14-65.23,24.15-80,69.49-117.46,114.78-70.69,160.5-86.66c5.28-1.66,4.5-.33,4.5-.33s-14.28,66-41.43,131.46c-21.12,50.89-66.56,107.44-107.87,131-39.06,22.24-83.45,16.81-83.45,16.81s33.64-20.24,63.39-47.44,56.49-56.57,74.87-80.4,41-67.21,41-67.21-42.72,73.2-122.55,137.39C3226.41,1951,3178.82,1979.4,3175.39,1981.19Z"/><path class="cls-2" d="M3155,1979s-22.87-21-35.95-34.62-38.13-49.49-27.3-106.78,45.13-137.34,72-188.2c3.24-5.82,3.56-4.62,3.56-4.62s36.25,35.18,61.22,83.09c19.41,37.25,22.45,100.67,4.8,149.5-16.69,46.16-58.12,88.92-58.12,88.92s13.57-40.11,18.77-78.51,6.28-74.49,4.36-100.44-14.58-62.33-14.58-62.33,17.5,66-2.9,166.24C3176,1918.28,3156.59,1975,3155,1979Z"/><path class="cls-2" d="M3041.28,1690.92A263.85,263.85,0,0,1,3223,1599c143-10.52,267.83,94.68,282.6,236.34q21.91,19.15,41.93,40.39a309.75,309.75,0,0,0-.58-35.21c-12.38-168.19-158.75-294.5-326.94-282.12a304.93,304.93,0,0,0-236.1,142Q3012.09,1694.3,3041.28,1690.92Z"/></g></svg>